# xmcd CD database file
#
# Track frame offsets:
#	150
#	11083
#	26107
#	43546
#	55933
#	75707
#	88724
#	100502
#	111757
#	124681
#	136580
#	145800
#	159397
#	170320
#	180598
#	192802
#	209805
#	222639
#	233448
#	245693
#	259448
#	270912
#	283824
#	303774
#	330036
#	334839
#
# Disc length: 4635 seconds
#
# Revision: 1
# Processed by: cddbd v1.5.2PL0 Copyright (c) Steve Scherf et al.
# Submitted via: CDex 1.70beta3
#
DISCID=6812191a
DTITLE=The Yardbirds - Little Games
DYEAR=1967
DGENRE=Rock
TTITLE0=Little Games
TTITLE1=Smile On Me
TTITLE2=White Summer
TTITLE3=Tinker, Tailor, Soldier, Sailor
TTITLE4=Glimpses
TTITLE5=Drinking Muddy Water
TTITLE6=No Excess Baggage
TTITLE7=Stealing, Stealing
TTITLE8=On The Black Rose
TTITLE9=Little Soldier Boy
TTITLE10=Puzzles
TTITLE11=I Remember The Light
TTITLE12=Ha Ha Said The Clown
TTITLE13=Ten Little Indians
TTITLE14=Goodnight Sweet Josephine (Version 1)
TTITLE15=Think About It
TTITLE16=Most Likely You Go Your Way (And I'll Go Mine) (BBC Version)
TTITLE17=Little Games (BBC Version)
TTITLE18=Drinking Muddy Water (BBC Version)
TTITLE19=Think About It (BBC Version)
TTITLE20=Goodnight Sweet Josephine (BBC Version)
TTITLE21=My Baby (BBC Version)
TTITLE22=White Summer (BBC Version)
TTITLE23=Dazed And Confused (BBC Version)
TTITLE24=Great Shakes
TTITLE25=Shining Where The Sun Has Been
EXTD=YEAR: 1967
EXTT0=
EXTT1=
EXTT2=
EXTT3=
EXTT4=
EXTT5=
EXTT6=
EXTT7=
EXTT8=
EXTT9=
EXTT10=
EXTT11=
EXTT12=
EXTT13=
EXTT14=
EXTT15=
EXTT16=
EXTT17=
EXTT18=
EXTT19=
EXTT20=
EXTT21=
EXTT22=
EXTT23=
EXTT24=
EXTT25=
PLAYORDER=
